<svg width="4771" height="971" viewBox="0 0 4771 971" fill="none" xmlns="http://www.w3.org/2000/svg">
<path d="M1123.64 797.44H103.63V816.7H1123.64V797.44Z" fill="white"/>
<path d="M4639.04 797.44H3619.03V816.7H4639.04V797.44Z" fill="white"/>
<path d="M633.99 361.68C654.6 367.78 672.05 379.72 686.35 397.53C700.64 415.34 707.79 438.29 707.79 466.4C707.79 486.08 704.74 504.24 698.66 520.87C692.56 537.5 682.25 551.92 667.73 564.09C653.2 576.27 633.65 585.87 609.05 592.91C584.45 599.93 553.64 603.45 516.63 603.45H103.36V317.4H519.42C530.19 317.4 539.68 315.18 547.88 310.72C556.07 306.27 560.18 297.96 560.18 285.77C560.18 274.06 555.96 266.09 547.53 261.88C539.1 257.66 529.72 255.55 519.42 255.55H103.36L201.75 133.26H513.1C541.21 133.26 566.62 135.96 589.35 141.35C612.07 146.74 631.52 154.95 647.68 165.95C663.84 176.96 676.25 190.55 684.93 206.71C693.59 222.88 697.93 241.74 697.93 263.29C697.93 277.35 696.05 289.77 692.31 300.54C688.55 311.32 683.75 320.81 677.9 329C672.04 337.21 665.25 344.01 657.52 349.38C649.8 354.78 641.95 358.87 633.99 361.68ZM249.55 417.9V482.57H517.32C533.24 482.57 544.73 479.76 551.75 474.14C558.77 468.52 562.29 460.32 562.29 449.54C562.29 439.24 558.77 431.39 551.75 426C544.72 420.62 533.24 417.91 517.32 417.91H249.55V417.9Z" fill="white"/>
<path d="M1290.4 482.57L1196.23 603.45H780.87V133.27H926.35V482.57H1290.4V482.57Z" fill="white"/>
<path d="M1514.6 603.45L1602.45 482.57H1720.52C1734.58 482.57 1749.21 482.57 1764.45 482.57C1779.67 482.57 1792.91 483.04 1804.16 483.97C1797.59 475.54 1789.98 464.88 1781.32 451.99C1772.65 439.11 1764.33 427.04 1756.37 415.79L1672.03 291.39L1451.35 603.44H1279.16L1580.67 178.24C1590.51 164.65 1602.91 152.48 1617.92 141.69C1632.91 130.92 1651.89 125.53 1674.85 125.53C1696.87 125.53 1715.26 130.57 1730.02 140.64C1744.78 150.72 1757.31 163.25 1767.62 178.24L2061.39 603.44H1514.6V603.45Z" fill="white"/>
<path d="M2549.14 320.92C2606.77 320.92 2650.58 331.58 2680.56 352.9C2710.54 374.22 2725.54 406.43 2725.54 449.53C2725.54 473.43 2721.78 494.99 2714.3 514.19C2706.8 533.41 2694.85 549.58 2678.46 562.69C2662.05 575.82 2641.09 585.88 2615.56 592.92C2590.02 599.94 2559.44 603.46 2523.84 603.46H2085.99L2179.46 482.58H2535.08C2552.41 482.58 2565.06 479.88 2573.03 474.49C2580.99 469.11 2584.98 460.32 2584.98 448.14C2584.98 435.96 2580.99 427.3 2573.03 422.13C2565.06 416.98 2552.41 414.4 2535.08 414.4H2279.26C2248.8 414.4 2222.56 411.13 2200.54 404.56C2178.51 398.01 2160.24 388.87 2145.72 377.15C2131.19 365.44 2120.42 351.27 2113.39 334.63C2106.36 318.01 2102.85 299.62 2102.85 279.46C2102.85 257.44 2106.71 237.41 2114.45 219.37C2122.18 201.34 2134.13 185.98 2150.29 173.34C2166.45 160.69 2187.3 150.85 2212.84 143.82C2238.37 136.8 2268.94 133.28 2304.56 133.28H2712.89L2619.42 255.57H2293.31C2276.44 255.57 2263.9 257.92 2255.71 262.59C2247.51 267.28 2243.41 275.72 2243.41 287.89C2243.41 300.08 2247.5 308.63 2255.71 313.55C2263.9 318.47 2276.45 320.93 2293.31 320.93H2549.14V320.92Z" fill="white"/>
<path d="M3332.07 133.27L3237.89 255.56H3069.92V603.45H2924.43V255.56H2703.75L2797.93 133.27H3332.07V133.27Z" fill="white"/>
<path d="M3922.43 482.57L3828.96 603.45H3376.35V133.27H3921.03L3826.86 255.56H3522.54V311.78H3895.03L3811.4 418.6H3522.54V482.56H3922.43V482.57Z" fill="white"/>
<path d="M4639.3 603.45H4444.62L4339.9 479.05H4116.4V603.45H3970.92V363.09H4379.96C4402.45 363.09 4421.42 358.41 4436.88 349.03C4452.36 339.66 4460.08 326.78 4460.08 310.37C4460.08 292.1 4453.05 278.39 4439 269.26C4424.93 260.13 4405.27 255.56 4379.96 255.56H3970.92L4065.8 133.27H4368.02C4394.72 133.27 4422.36 135.73 4450.95 140.65C4479.53 145.57 4505.52 154.35 4528.97 167C4552.38 179.65 4571.71 196.76 4586.94 218.31C4602.17 239.87 4609.79 267.51 4609.79 301.24C4609.79 319.51 4606.97 336.85 4601.35 353.24C4595.73 369.65 4587.66 384.41 4577.11 397.52C4566.56 410.64 4553.68 421.77 4538.45 430.9C4523.22 440.04 4506.01 446.49 4486.8 450.23C4494.77 456.32 4503.67 464.06 4513.5 473.42C4523.35 482.79 4536.46 495.67 4552.88 512.07L4639.3 603.45Z" fill="white"/>
<path d="M1327.09 739.21C1355.2 739.21 1376.32 743.99 1390.44 753.56C1404.55 763.13 1411.61 778.22 1411.61 798.85C1411.61 819.59 1404.58 834.75 1390.52 844.31C1376.46 853.88 1355.32 858.66 1327.09 858.66C1298.74 858.66 1277.57 853.88 1263.57 844.31C1249.57 834.75 1242.57 819.59 1242.57 798.85C1242.57 778.22 1249.6 763.13 1263.66 753.56C1277.71 743.99 1298.86 739.21 1327.09 739.21ZM1327.09 828.57C1336.08 828.57 1343.68 828.2 1349.91 827.45C1356.13 826.7 1361.17 825.23 1365.03 823.04C1368.89 820.85 1371.68 817.83 1373.41 813.97C1375.14 810.11 1376 805.07 1376 798.85C1376 792.63 1375.14 787.59 1373.41 783.73C1371.68 779.87 1368.89 776.88 1365.03 774.74C1361.17 772.61 1356.13 771.17 1349.91 770.42C1343.69 769.67 1336.08 769.3 1327.09 769.3C1318.1 769.3 1310.5 769.68 1304.27 770.42C1298.05 771.17 1293.01 772.61 1289.15 774.74C1285.29 776.87 1282.5 779.87 1280.77 783.73C1279.04 787.59 1278.18 792.63 1278.18 798.85C1278.18 805.07 1279.04 810.12 1280.77 813.97C1282.5 817.83 1285.29 820.86 1289.15 823.04C1293.01 825.23 1298.05 826.7 1304.27 827.45C1310.5 828.2 1318.1 828.57 1327.09 828.57Z" fill="white"/>
<path d="M1551.27 856.75H1441.69C1437.2 856.75 1433.31 855.51 1430.02 853.03C1426.74 850.55 1425.09 846.95 1425.09 842.23C1425.09 839.58 1425.78 837.02 1427.16 834.54C1428.54 832.06 1430.44 829.85 1432.86 827.89L1475.03 794.7C1479.87 790.9 1484.02 787.64 1487.47 784.93C1490.93 782.22 1493.92 779.92 1496.46 778.02C1498.99 776.12 1501.1 774.59 1502.77 773.44C1504.44 772.29 1505.79 771.31 1506.83 770.5C1505.21 770.62 1503.34 770.73 1501.21 770.85C1499.08 770.97 1496.43 771.05 1493.26 771.11C1490.09 771.17 1486.37 771.2 1482.11 771.2C1477.85 771.2 1472.83 771.2 1467.07 771.2H1420.75L1443.57 741.12H1550.22C1554.71 741.12 1558.6 742.36 1561.89 744.84C1565.17 747.32 1566.82 750.92 1566.82 755.64C1566.82 758.29 1566.13 760.86 1564.75 763.33C1563.37 765.81 1561.47 767.97 1559.05 769.81L1516.36 803.69C1511.63 807.49 1507.55 810.72 1504.09 813.37C1500.63 816.02 1497.66 818.3 1495.19 820.2C1492.71 822.1 1490.67 823.63 1489.05 824.78C1487.43 825.93 1486.05 826.91 1484.9 827.72C1486.28 827.61 1488.62 827.52 1491.9 827.46C1495.18 827.4 1498.96 827.35 1503.22 827.29C1507.48 827.23 1512.03 827.18 1516.87 827.12C1521.71 827.06 1526.38 827.03 1530.87 827.03H1572.87L1551.27 856.75Z" fill="white"/>
<path d="M1666.04 739.21C1694.15 739.21 1715.27 743.99 1729.39 753.56C1743.5 763.13 1750.56 778.22 1750.56 798.85C1750.56 819.59 1743.53 834.75 1729.47 844.31C1715.41 853.88 1694.27 858.66 1666.04 858.66C1637.69 858.66 1616.52 853.88 1602.52 844.31C1588.52 834.75 1581.52 819.59 1581.52 798.85C1581.52 778.22 1588.55 763.13 1602.61 753.56C1616.66 743.99 1637.81 739.21 1666.04 739.21ZM1666.04 828.57C1675.03 828.57 1682.63 828.2 1688.86 827.45C1695.08 826.7 1700.12 825.23 1703.98 823.04C1707.84 820.85 1710.63 817.83 1712.36 813.97C1714.09 810.11 1714.95 805.07 1714.95 798.85C1714.95 792.63 1714.09 787.59 1712.36 783.73C1710.63 779.87 1707.84 776.88 1703.98 774.74C1700.12 772.61 1695.08 771.17 1688.86 770.42C1682.64 769.67 1675.03 769.3 1666.04 769.3C1657.05 769.3 1649.45 769.68 1643.22 770.42C1637 771.17 1631.96 772.61 1628.1 774.74C1624.24 776.87 1621.45 779.87 1619.72 783.73C1617.99 787.59 1617.13 792.63 1617.13 798.85C1617.13 805.07 1617.99 810.12 1619.72 813.97C1621.45 817.83 1624.24 820.86 1628.1 823.04C1631.96 825.23 1637 826.7 1643.22 827.45C1649.45 828.2 1657.05 828.57 1666.04 828.57Z" fill="white"/>
<path d="M1885.9 858.65C1883.59 858.65 1881.32 858.27 1879.07 857.53C1876.82 856.78 1874.32 855.08 1871.55 852.43L1800.68 788.82V856.75H1768.18V760.82C1768.18 757.02 1768.73 753.73 1769.82 750.97C1770.91 748.2 1772.35 745.96 1774.14 744.23C1775.93 742.5 1778 741.23 1780.36 740.43C1782.72 739.63 1785.17 739.22 1787.71 739.22C1789.9 739.22 1792.12 739.6 1794.36 740.34C1796.61 741.09 1799.17 742.79 1802.05 745.44L1872.92 809.05V741.12H1905.59V836.88C1905.59 840.68 1905.04 843.97 1903.95 846.73C1902.85 849.5 1901.41 851.77 1899.63 853.56C1897.84 855.35 1895.74 856.64 1893.32 857.45C1890.9 858.26 1888.44 858.65 1885.9 858.65Z" fill="white"/>
<path d="M2060.99 827.02L2038 856.75H1926.69V741.11H2060.65L2037.49 771.19H1962.65V785.02H2054.26L2033.69 811.29H1962.65V827.02H2060.99V827.02Z" fill="white"/>
<path d="M2246.63 787.26C2260.8 787.26 2271.58 789.88 2278.95 795.12C2286.32 800.36 2290.01 808.29 2290.01 818.89C2290.01 824.77 2289.09 830.07 2287.24 834.79C2285.4 839.52 2282.46 843.49 2278.42 846.72C2274.39 849.95 2269.23 852.42 2262.95 854.15C2256.67 855.88 2249.15 856.74 2240.39 856.74H2132.71L2155.7 827.01H2243.16C2247.42 827.01 2250.53 826.35 2252.49 825.02C2254.45 823.7 2255.43 821.54 2255.43 818.54C2255.43 815.54 2254.45 813.41 2252.49 812.14C2250.53 810.87 2247.42 810.24 2243.16 810.24H2180.24C2172.75 810.24 2166.3 809.43 2160.88 807.82C2155.46 806.21 2150.97 803.96 2147.4 801.08C2143.83 798.2 2141.18 794.71 2139.45 790.62C2137.72 786.53 2136.86 782.01 2136.86 777.05C2136.86 771.63 2137.81 766.71 2139.71 762.27C2141.61 757.84 2144.55 754.06 2148.53 750.95C2152.51 747.84 2157.63 745.42 2163.91 743.69C2170.19 741.96 2177.71 741.1 2186.47 741.1H2286.89L2263.9 771.18H2183.7C2179.55 771.18 2176.47 771.76 2174.45 772.91C2172.43 774.06 2171.43 776.14 2171.43 779.13C2171.43 782.13 2172.44 784.23 2174.45 785.44C2176.46 786.65 2179.55 787.25 2183.7 787.25H2246.63V787.26Z" fill="white"/>
<path d="M2386.81 739.21C2414.92 739.21 2436.04 743.99 2450.16 753.56C2464.27 763.13 2471.33 778.22 2471.33 798.85C2471.33 819.59 2464.3 834.75 2450.24 844.31C2436.18 853.88 2415.04 858.66 2386.81 858.66C2358.46 858.66 2337.29 853.88 2323.29 844.31C2309.29 834.75 2302.29 819.59 2302.29 798.85C2302.29 778.22 2309.32 763.13 2323.38 753.56C2337.43 743.99 2358.57 739.21 2386.81 739.21ZM2386.81 828.57C2395.8 828.57 2403.4 828.2 2409.63 827.45C2415.85 826.7 2420.89 825.23 2424.75 823.04C2428.61 820.85 2431.4 817.83 2433.13 813.97C2434.86 810.11 2435.72 805.07 2435.72 798.85C2435.72 792.63 2434.86 787.59 2433.13 783.73C2431.4 779.87 2428.61 776.88 2424.75 774.74C2420.89 772.61 2415.85 771.17 2409.63 770.42C2403.41 769.67 2395.8 769.3 2386.81 769.3C2377.82 769.3 2370.22 769.68 2363.99 770.42C2357.77 771.17 2352.73 772.61 2348.87 774.74C2345.01 776.87 2342.22 779.87 2340.49 783.73C2338.76 787.59 2337.9 792.63 2337.9 798.85C2337.9 805.07 2338.76 810.12 2340.49 813.97C2342.22 817.83 2345.01 820.86 2348.87 823.04C2352.73 825.23 2357.77 826.7 2363.99 827.45C2370.21 828.2 2377.82 828.57 2386.81 828.57Z" fill="white"/>
<path d="M2614.79 827.02L2591.63 856.75H2489.48V741.11H2525.26V827.01H2614.79V827.02Z" fill="white"/>
<path d="M2776.92 806.27C2776.92 841.19 2752.89 858.64 2704.84 858.64C2690.9 858.64 2678.91 857.54 2668.89 855.36C2658.86 853.17 2650.6 849.89 2644.09 845.51C2637.58 841.13 2632.8 835.69 2629.74 829.18C2626.69 822.67 2625.16 815.04 2625.16 806.28V741.12H2660.77V806.28C2660.77 810.54 2661.35 814.12 2662.5 817C2663.65 819.88 2665.81 822.22 2668.98 824C2672.15 825.79 2676.61 827.05 2682.38 827.8C2688.14 828.55 2695.63 828.92 2704.85 828.92C2711.76 828.92 2717.52 828.52 2722.13 827.71C2726.74 826.9 2730.43 825.58 2733.19 823.73C2735.96 821.89 2737.94 819.52 2739.15 816.64C2740.36 813.76 2740.96 810.3 2740.96 806.27V741.11H2776.91V806.27H2776.92Z" fill="white"/>
<path d="M2940.78 741.11L2917.62 771.19H2876.31V856.75H2840.53V771.19H2786.26L2809.42 741.11H2940.78Z" fill="white"/>
<path d="M2987.96 856.75H2952.18V741.11H2987.96V856.75Z" fill="white"/>
<path d="M3091.15 739.21C3119.26 739.21 3140.38 743.99 3154.5 753.56C3168.61 763.13 3175.67 778.22 3175.67 798.85C3175.67 819.59 3168.64 834.75 3154.58 844.31C3140.52 853.88 3119.38 858.66 3091.15 858.66C3062.8 858.66 3041.63 853.88 3027.63 844.31C3013.63 834.75 3006.63 819.59 3006.63 798.85C3006.63 778.22 3013.66 763.13 3027.72 753.56C3041.77 743.99 3062.92 739.21 3091.15 739.21ZM3091.15 828.57C3100.14 828.57 3107.74 828.2 3113.97 827.45C3120.19 826.7 3125.23 825.23 3129.09 823.04C3132.95 820.85 3135.74 817.83 3137.47 813.97C3139.2 810.11 3140.06 805.07 3140.06 798.85C3140.06 792.63 3139.2 787.59 3137.47 783.73C3135.74 779.87 3132.95 776.88 3129.09 774.74C3125.23 772.61 3120.19 771.17 3113.97 770.42C3107.75 769.67 3100.14 769.3 3091.15 769.3C3082.16 769.3 3074.56 769.68 3068.33 770.42C3062.11 771.17 3057.07 772.61 3053.21 774.74C3049.35 776.87 3046.56 779.87 3044.83 783.73C3043.1 787.59 3042.24 792.63 3042.24 798.85C3042.24 805.07 3043.1 810.12 3044.83 813.97C3046.56 817.83 3049.35 820.86 3053.21 823.04C3057.07 825.23 3062.11 826.7 3068.33 827.45C3074.56 828.2 3082.16 828.57 3091.15 828.57Z" fill="white"/>
<path d="M3311.01 858.65C3308.7 858.65 3306.43 858.27 3304.18 857.53C3301.93 856.78 3299.43 855.08 3296.66 852.43L3225.79 788.82V856.75H3193.29V760.82C3193.29 757.02 3193.84 753.73 3194.93 750.97C3196.02 748.2 3197.46 745.96 3199.25 744.23C3201.04 742.5 3203.11 741.23 3205.47 740.43C3207.83 739.63 3210.28 739.22 3212.82 739.22C3215.01 739.22 3217.23 739.6 3219.47 740.34C3221.72 741.09 3224.28 742.79 3227.16 745.44L3298.03 809.05V741.12H3330.7V836.88C3330.7 840.68 3330.15 843.97 3329.06 846.73C3327.96 849.5 3326.52 851.77 3324.74 853.56C3322.95 855.35 3320.85 856.64 3318.43 857.45C3316.01 858.26 3313.54 858.65 3311.01 858.65Z" fill="white"/>
<path d="M3458.96 787.26C3473.13 787.26 3483.91 789.88 3491.28 795.12C3498.65 800.36 3502.34 808.29 3502.34 818.89C3502.34 824.77 3501.42 830.07 3499.57 834.79C3497.73 839.52 3494.79 843.49 3490.75 846.72C3486.72 849.95 3481.56 852.42 3475.28 854.15C3469 855.88 3461.48 856.74 3452.72 856.74H3345.04L3368.03 827.01H3455.49C3459.75 827.01 3462.86 826.35 3464.82 825.02C3466.78 823.7 3467.76 821.54 3467.76 818.54C3467.76 815.54 3466.78 813.41 3464.82 812.14C3462.86 810.87 3459.75 810.24 3455.49 810.24H3392.57C3385.08 810.24 3378.63 809.43 3373.21 807.82C3367.79 806.21 3363.3 803.96 3359.73 801.08C3356.16 798.2 3353.51 794.71 3351.78 790.62C3350.05 786.53 3349.19 782.01 3349.19 777.05C3349.19 771.63 3350.14 766.71 3352.04 762.27C3353.94 757.84 3356.88 754.06 3360.86 750.95C3364.84 747.84 3369.96 745.42 3376.24 743.69C3382.52 741.96 3390.04 741.1 3398.8 741.1H3499.22L3476.23 771.18H3396.03C3391.88 771.18 3388.8 771.76 3386.78 772.91C3384.76 774.06 3383.76 776.14 3383.76 779.13C3383.76 782.13 3384.77 784.23 3386.78 785.44C3388.79 786.65 3391.88 787.25 3396.03 787.25H3458.96V787.26Z" fill="white"/>
</svg>
