<?xml version="1.0" encoding="utf-8"?>
<!-- Generator: Adobe Illustrator 24.3.0, SVG Export Plug-In . SVG Version: 6.00 Build 0)  -->
<svg version="1.1" id="Layer_1" xmlns="http://www.w3.org/2000/svg" xmlns:xlink="http://www.w3.org/1999/xlink" x="0px" y="0px"
	 viewBox="0 0 4770.78 970.43" style="enable-background:new 0 0 4770.78 970.43;" xml:space="preserve">
<style type="text/css">
	.st0{fill:#224390;}
</style>
<g>
	<g>
		<rect x="103.63" y="797.44" class="st0" width="1020.01" height="19.26"/>
	</g>
	<g>
		<rect x="3619.03" y="797.44" class="st0" width="1020.01" height="19.26"/>
	</g>
</g>
<g>
	<g>
		<path class="st0" d="M633.99,361.68c20.61,6.1,38.06,18.04,52.36,35.85c14.29,17.81,21.44,40.76,21.44,68.87
			c0,19.68-3.05,37.84-9.13,54.47c-6.1,16.63-16.41,31.05-30.93,43.22c-14.53,12.18-34.08,21.78-58.68,28.82
			c-24.6,7.02-55.41,10.54-92.42,10.54H103.36V317.4h416.06c10.77,0,20.26-2.22,28.46-6.68c8.19-4.45,12.3-12.76,12.3-24.95
			c0-11.71-4.22-19.68-12.65-23.89c-8.43-4.22-17.81-6.33-28.11-6.33H103.36l98.39-122.29h311.35c28.11,0,53.52,2.7,76.25,8.09
			c22.72,5.39,42.17,13.6,58.33,24.6c16.16,11.01,28.57,24.6,37.25,40.76c8.66,16.17,13,35.03,13,56.58
			c0,14.06-1.88,26.48-5.62,37.25c-3.76,10.78-8.56,20.27-14.41,28.46c-5.86,8.21-12.65,15.01-20.38,20.38
			C649.8,354.78,641.95,358.87,633.99,361.68z M249.55,417.9v64.67h267.77c15.92,0,27.41-2.81,34.43-8.43s10.54-13.82,10.54-24.6
			c0-10.3-3.52-18.15-10.54-23.54c-7.03-5.38-18.51-8.09-34.43-8.09H249.55z"/>
	</g>
	<g>
		<path class="st0" d="M1290.4,482.57l-94.17,120.88H780.87V133.27h145.48v349.3H1290.4z"/>
	</g>
	<g>
		<path class="st0" d="M1514.6,603.45l87.85-120.88h118.07c14.06,0,28.69,0,43.93,0c15.22,0,28.46,0.47,39.71,1.4
			c-6.57-8.43-14.18-19.09-22.84-31.98c-8.67-12.88-16.99-24.95-24.95-36.2l-84.34-124.4l-220.68,312.05h-172.19l301.51-425.2
			c9.84-13.59,22.24-25.76,37.25-36.55c14.99-10.77,33.97-16.16,56.93-16.16c22.02,0,40.41,5.04,55.17,15.11
			c14.76,10.08,27.29,22.61,37.6,37.6l293.77,425.2H1514.6z"/>
	</g>
	<g>
		<path class="st0" d="M2549.14,320.92c57.63,0,101.44,10.66,131.42,31.98c29.98,21.32,44.98,53.53,44.98,96.63
			c0,23.9-3.76,45.46-11.24,64.66c-7.5,19.22-19.45,35.39-35.84,48.5c-16.41,13.13-37.37,23.19-62.9,30.23
			c-25.54,7.02-56.12,10.54-91.72,10.54h-437.85l93.47-120.88h355.62c17.33,0,29.98-2.7,37.95-8.09
			c7.96-5.38,11.95-14.17,11.95-26.35c0-12.18-3.99-20.84-11.95-26.01c-7.97-5.15-20.62-7.73-37.95-7.73h-255.82
			c-30.46,0-56.7-3.27-78.72-9.84c-22.03-6.55-40.3-15.69-54.82-27.41c-14.53-11.71-25.3-25.88-32.33-42.52
			c-7.03-16.62-10.54-35.01-10.54-55.17c0-22.02,3.86-42.05,11.6-60.09c7.73-18.03,19.68-33.39,35.84-46.03
			c16.16-12.65,37.01-22.49,62.55-29.52c25.53-7.02,56.1-10.54,91.72-10.54h408.33l-93.47,122.29h-326.11
			c-16.87,0-29.41,2.35-37.6,7.02c-8.2,4.69-12.3,13.13-12.3,25.3c0,12.19,4.09,20.74,12.3,25.66c8.19,4.92,20.74,7.38,37.6,7.38
			H2549.14z"/>
	</g>
	<g>
		<path class="st0" d="M3332.07,133.27l-94.18,122.29h-167.97v347.89h-145.49V255.56h-220.68l94.18-122.29H3332.07z"/>
	</g>
	<g>
		<path class="st0" d="M3922.43,482.57l-93.47,120.88h-452.61V133.27h544.68l-94.17,122.29h-304.32v56.22h372.49l-83.63,106.82
			h-288.86v63.96H3922.43z"/>
	</g>
	<g>
		<path class="st0" d="M4639.3,603.45h-194.68l-104.72-124.4h-223.5v124.4h-145.48V363.09h409.04c22.49,0,41.46-4.68,56.92-14.06
			c15.48-9.37,23.2-22.25,23.2-38.66c0-18.27-7.03-31.98-21.08-41.11c-14.07-9.13-33.73-13.7-59.04-13.7h-409.04l94.88-122.29
			h302.22c26.7,0,54.34,2.46,82.93,7.38c28.58,4.92,54.57,13.7,78.02,26.35c23.41,12.65,42.74,29.76,57.97,51.31
			c15.23,21.56,22.85,49.2,22.85,82.93c0,18.27-2.82,35.61-8.44,52c-5.62,16.41-13.69,31.17-24.24,44.28
			c-10.55,13.12-23.43,24.25-38.66,33.38c-15.23,9.14-32.44,15.59-51.65,19.33c7.97,6.09,16.87,13.83,26.7,23.19
			c9.85,9.37,22.96,22.25,39.38,38.65L4639.3,603.45z"/>
	</g>
</g>
<g>
	<path class="st0" d="M1327.09,739.21c28.11,0,49.23,4.78,63.35,14.35c14.11,9.57,21.17,24.66,21.17,45.29
		c0,20.74-7.03,35.9-21.09,45.46c-14.06,9.57-35.2,14.35-63.43,14.35c-28.35,0-49.52-4.78-63.52-14.35c-14-9.56-21-24.72-21-45.46
		c0-20.63,7.03-35.72,21.09-45.29C1277.71,743.99,1298.86,739.21,1327.09,739.21z M1327.09,828.57c8.99,0,16.59-0.37,22.82-1.12
		c6.22-0.75,11.26-2.22,15.12-4.41c3.86-2.19,6.65-5.21,8.38-9.07c1.73-3.86,2.59-8.9,2.59-15.12c0-6.22-0.86-11.26-2.59-15.12
		c-1.73-3.86-4.52-6.85-8.38-8.99c-3.86-2.13-8.9-3.57-15.12-4.32c-6.22-0.75-13.83-1.12-22.82-1.12c-8.99,0-16.59,0.38-22.82,1.12
		c-6.22,0.75-11.26,2.19-15.12,4.32c-3.86,2.13-6.65,5.13-8.38,8.99c-1.73,3.86-2.59,8.9-2.59,15.12c0,6.22,0.86,11.27,2.59,15.12
		c1.73,3.86,4.52,6.89,8.38,9.07c3.86,2.19,8.9,3.66,15.12,4.41C1310.5,828.2,1318.1,828.57,1327.09,828.57z"/>
	<path class="st0" d="M1551.27,856.75h-109.58c-4.49,0-8.38-1.24-11.67-3.72c-3.28-2.48-4.93-6.08-4.93-10.8
		c0-2.65,0.69-5.21,2.07-7.69c1.38-2.48,3.28-4.69,5.7-6.65l42.17-33.19c4.84-3.8,8.99-7.06,12.44-9.77
		c3.46-2.71,6.45-5.01,8.99-6.91c2.53-1.9,4.64-3.43,6.31-4.58c1.67-1.15,3.02-2.13,4.06-2.94c-1.62,0.12-3.49,0.23-5.62,0.35
		c-2.13,0.12-4.78,0.2-7.95,0.26c-3.17,0.06-6.89,0.09-11.15,0.09c-4.26,0-9.28,0-15.04,0h-46.32l22.82-30.08h106.65
		c4.49,0,8.38,1.24,11.67,3.72c3.28,2.48,4.93,6.08,4.93,10.8c0,2.65-0.69,5.22-2.07,7.69c-1.38,2.48-3.28,4.64-5.7,6.48
		l-42.69,33.88c-4.73,3.8-8.81,7.03-12.27,9.68c-3.46,2.65-6.43,4.93-8.9,6.83c-2.48,1.9-4.52,3.43-6.14,4.58
		c-1.62,1.15-3,2.13-4.15,2.94c1.38-0.11,3.72-0.2,7-0.26c3.28-0.06,7.06-0.11,11.32-0.17c4.26-0.06,8.81-0.11,13.65-0.17
		c4.84-0.06,9.51-0.09,14-0.09h42L1551.27,856.75z"/>
	<path class="st0" d="M1666.04,739.21c28.11,0,49.23,4.78,63.35,14.35c14.11,9.57,21.17,24.66,21.17,45.29
		c0,20.74-7.03,35.9-21.09,45.46c-14.06,9.57-35.2,14.35-63.43,14.35c-28.35,0-49.52-4.78-63.52-14.35c-14-9.56-21-24.72-21-45.46
		c0-20.63,7.03-35.72,21.09-45.29C1616.66,743.99,1637.81,739.21,1666.04,739.21z M1666.04,828.57c8.99,0,16.59-0.37,22.82-1.12
		c6.22-0.75,11.26-2.22,15.12-4.41c3.86-2.19,6.65-5.21,8.38-9.07c1.73-3.86,2.59-8.9,2.59-15.12c0-6.22-0.86-11.26-2.59-15.12
		c-1.73-3.86-4.52-6.85-8.38-8.99c-3.86-2.13-8.9-3.57-15.12-4.32c-6.22-0.75-13.83-1.12-22.82-1.12c-8.99,0-16.59,0.38-22.82,1.12
		c-6.22,0.75-11.26,2.19-15.12,4.32c-3.86,2.13-6.65,5.13-8.38,8.99c-1.73,3.86-2.59,8.9-2.59,15.12c0,6.22,0.86,11.27,2.59,15.12
		c1.73,3.86,4.52,6.89,8.38,9.07c3.86,2.19,8.9,3.66,15.12,4.41C1649.45,828.2,1657.05,828.57,1666.04,828.57z"/>
	<path class="st0" d="M1885.9,858.65c-2.31,0-4.58-0.38-6.83-1.12c-2.25-0.75-4.75-2.45-7.52-5.1l-70.87-63.61v67.93h-32.5v-95.93
		c0-3.8,0.55-7.09,1.64-9.85c1.09-2.77,2.53-5.01,4.32-6.74c1.79-1.73,3.86-3,6.22-3.8c2.36-0.8,4.81-1.21,7.35-1.21
		c2.19,0,4.41,0.38,6.65,1.12c2.25,0.75,4.81,2.45,7.69,5.1l70.87,63.61v-67.93h32.67v95.76c0,3.8-0.55,7.09-1.64,9.85
		c-1.1,2.77-2.54,5.04-4.32,6.83c-1.79,1.79-3.89,3.08-6.31,3.89S1888.44,858.65,1885.9,858.65z"/>
	<path class="st0" d="M2060.99,827.02L2038,856.75h-111.31V741.11h133.96l-23.16,30.08h-74.84v13.83h91.61l-20.57,26.27h-71.04
		v15.73H2060.99z"/>
	<path class="st0" d="M2246.63,787.26c14.17,0,24.95,2.62,32.32,7.86c7.37,5.24,11.06,13.17,11.06,23.77
		c0,5.88-0.92,11.18-2.77,15.9c-1.84,4.73-4.78,8.7-8.82,11.93c-4.03,3.23-9.19,5.7-15.47,7.43c-6.28,1.73-13.8,2.59-22.56,2.59
		h-107.68l22.99-29.73h87.46c4.26,0,7.37-0.66,9.33-1.99c1.96-1.32,2.94-3.48,2.94-6.48c0-3-0.98-5.13-2.94-6.4
		c-1.96-1.27-5.07-1.9-9.33-1.9h-62.92c-7.49,0-13.94-0.81-19.36-2.42c-5.42-1.61-9.91-3.86-13.48-6.74
		c-3.57-2.88-6.22-6.37-7.95-10.46c-1.73-4.09-2.59-8.61-2.59-13.57c0-5.42,0.95-10.34,2.85-14.78c1.9-4.43,4.84-8.21,8.82-11.32
		s9.1-5.53,15.38-7.26c6.28-1.73,13.8-2.59,22.56-2.59h100.42l-22.99,30.08h-80.2c-4.15,0-7.23,0.58-9.25,1.73
		c-2.02,1.15-3.02,3.23-3.02,6.22c0,3,1.01,5.1,3.02,6.31c2.01,1.21,5.1,1.81,9.25,1.81H2246.63z"/>
	<path class="st0" d="M2386.81,739.21c28.11,0,49.23,4.78,63.35,14.35c14.11,9.57,21.17,24.66,21.17,45.29
		c0,20.74-7.03,35.9-21.09,45.46c-14.06,9.57-35.2,14.35-63.43,14.35c-28.35,0-49.52-4.78-63.52-14.35c-14-9.56-21-24.72-21-45.46
		c0-20.63,7.03-35.72,21.09-45.29C2337.43,743.99,2358.57,739.21,2386.81,739.21z M2386.81,828.57c8.99,0,16.59-0.37,22.82-1.12
		c6.22-0.75,11.26-2.22,15.12-4.41c3.86-2.19,6.65-5.21,8.38-9.07c1.73-3.86,2.59-8.9,2.59-15.12c0-6.22-0.86-11.26-2.59-15.12
		c-1.73-3.86-4.52-6.85-8.38-8.99c-3.86-2.13-8.9-3.57-15.12-4.32c-6.22-0.75-13.83-1.12-22.82-1.12c-8.99,0-16.59,0.38-22.82,1.12
		c-6.22,0.75-11.26,2.19-15.12,4.32c-3.86,2.13-6.65,5.13-8.38,8.99c-1.73,3.86-2.59,8.9-2.59,15.12c0,6.22,0.86,11.27,2.59,15.12
		c1.73,3.86,4.52,6.89,8.38,9.07c3.86,2.19,8.9,3.66,15.12,4.41C2370.21,828.2,2377.82,828.57,2386.81,828.57z"/>
	<path class="st0" d="M2614.79,827.02l-23.16,29.73h-102.15V741.11h35.78v85.9H2614.79z"/>
	<path class="st0" d="M2776.92,806.27c0,34.92-24.03,52.37-72.08,52.37c-13.94,0-25.93-1.1-35.95-3.28
		c-10.03-2.19-18.29-5.47-24.8-9.85c-6.51-4.38-11.29-9.82-14.35-16.33c-3.05-6.51-4.58-14.14-4.58-22.9v-65.16h35.61v65.16
		c0,4.26,0.58,7.84,1.73,10.72c1.15,2.88,3.31,5.22,6.48,7c3.17,1.79,7.63,3.05,13.4,3.8c5.76,0.75,13.25,1.12,22.47,1.12
		c6.91,0,12.67-0.4,17.28-1.21c4.61-0.81,8.3-2.13,11.06-3.98c2.77-1.84,4.75-4.21,5.96-7.09c1.21-2.88,1.81-6.34,1.81-10.37v-65.16
		h35.95V806.27z"/>
	<path class="st0" d="M2940.78,741.11l-23.16,30.08h-41.31v85.56h-35.78v-85.56h-54.27l23.16-30.08H2940.78z"/>
	<path class="st0" d="M2987.96,856.75h-35.78V741.11h35.78V856.75z"/>
	<path class="st0" d="M3091.15,739.21c28.11,0,49.23,4.78,63.35,14.35c14.11,9.57,21.17,24.66,21.17,45.29
		c0,20.74-7.03,35.9-21.09,45.46c-14.06,9.57-35.2,14.35-63.43,14.35c-28.35,0-49.52-4.78-63.52-14.35c-14-9.56-21-24.72-21-45.46
		c0-20.63,7.03-35.72,21.09-45.29C3041.77,743.99,3062.92,739.21,3091.15,739.21z M3091.15,828.57c8.99,0,16.59-0.37,22.82-1.12
		c6.22-0.75,11.26-2.22,15.12-4.41c3.86-2.19,6.65-5.21,8.38-9.07c1.73-3.86,2.59-8.9,2.59-15.12c0-6.22-0.86-11.26-2.59-15.12
		c-1.73-3.86-4.52-6.85-8.38-8.99c-3.86-2.13-8.9-3.57-15.12-4.32c-6.22-0.75-13.83-1.12-22.82-1.12c-8.99,0-16.59,0.38-22.82,1.12
		c-6.22,0.75-11.26,2.19-15.12,4.32c-3.86,2.13-6.65,5.13-8.38,8.99c-1.73,3.86-2.59,8.9-2.59,15.12c0,6.22,0.86,11.27,2.59,15.12
		c1.73,3.86,4.52,6.89,8.38,9.07c3.86,2.19,8.9,3.66,15.12,4.41C3074.56,828.2,3082.16,828.57,3091.15,828.57z"/>
	<path class="st0" d="M3311.01,858.65c-2.31,0-4.58-0.38-6.83-1.12c-2.25-0.75-4.75-2.45-7.52-5.1l-70.87-63.61v67.93h-32.5v-95.93
		c0-3.8,0.55-7.09,1.64-9.85c1.09-2.77,2.53-5.01,4.32-6.74c1.79-1.73,3.86-3,6.22-3.8c2.36-0.8,4.81-1.21,7.35-1.21
		c2.19,0,4.41,0.38,6.65,1.12c2.25,0.75,4.81,2.45,7.69,5.1l70.87,63.61v-67.93h32.67v95.76c0,3.8-0.55,7.09-1.64,9.85
		c-1.1,2.77-2.54,5.04-4.32,6.83c-1.79,1.79-3.89,3.08-6.31,3.89S3313.54,858.65,3311.01,858.65z"/>
	<path class="st0" d="M3458.96,787.26c14.17,0,24.95,2.62,32.32,7.86c7.37,5.24,11.06,13.17,11.06,23.77
		c0,5.88-0.92,11.18-2.77,15.9c-1.84,4.73-4.78,8.7-8.82,11.93c-4.03,3.23-9.19,5.7-15.47,7.43c-6.28,1.73-13.8,2.59-22.56,2.59
		h-107.68l22.99-29.73h87.46c4.26,0,7.37-0.66,9.33-1.99c1.96-1.32,2.94-3.48,2.94-6.48c0-3-0.98-5.13-2.94-6.4
		c-1.96-1.27-5.07-1.9-9.33-1.9h-62.92c-7.49,0-13.94-0.81-19.36-2.42c-5.42-1.61-9.91-3.86-13.48-6.74
		c-3.57-2.88-6.22-6.37-7.95-10.46c-1.73-4.09-2.59-8.61-2.59-13.57c0-5.42,0.95-10.34,2.85-14.78c1.9-4.43,4.84-8.21,8.82-11.32
		s9.1-5.53,15.38-7.26c6.28-1.73,13.8-2.59,22.56-2.59h100.42l-22.99,30.08h-80.2c-4.15,0-7.23,0.58-9.25,1.73
		c-2.02,1.15-3.02,3.23-3.02,6.22c0,3,1.01,5.1,3.02,6.31c2.01,1.21,5.1,1.81,9.25,1.81H3458.96z"/>
</g>
</svg>
